<svg xmlns="http://www.w3.org/2000/svg" xmlns:xlink="http://www.w3.org/1999/xlink" width="500" zoomAndPan="magnify" viewBox="0 0 375 374.999991" height="500" preserveAspectRatio="xMidYMid meet" version="1.2"><defs><clipPath id="fa5f3856ec"><path d="M 229 17.441406 L 301 17.441406 L 301 90 L 229 90 Z M 229 17.441406 "/></clipPath><clipPath id="af8d523f06"><path d="M 73.773438 17.441406 L 301 17.441406 L 301 245 L 73.773438 245 Z M 73.773438 17.441406 "/></clipPath></defs><g id="7193047b40"><g clip-rule="nonzero" clip-path="url(#fa5f3856ec)"><path style=" stroke:none;fill-rule:nonzero;fill:#ffffff;fill-opacity:1;" d="M 300.984375 17.761719 L 300.984375 89.238281 C 288.734375 56.21875 262.515625 30.003906 229.519531 17.761719 Z M 300.984375 17.761719 "/></g><path style=" stroke:none;fill-rule:nonzero;fill:#ac04e3;fill-opacity:1;" d="M 299.277344 244.976562 C 299.277344 306.773438 249.179688 356.875 187.390625 356.875 C 125.59375 356.875 75.492188 306.78125 75.492188 244.976562 L 123.847656 244.976562 C 123.847656 280.066406 152.292969 308.515625 187.390625 308.515625 C 222.472656 308.515625 250.917969 280.074219 250.917969 244.976562 Z M 299.277344 244.976562 "/><g clip-rule="nonzero" clip-path="url(#af8d523f06)"><path style=" stroke:none;fill-rule:nonzero;fill:#ac04e3;fill-opacity:1;" d="M 187.382812 17.761719 C 124.640625 17.761719 73.773438 68.628906 73.773438 131.371094 C 73.773438 152.765625 79.679688 172.78125 89.980469 189.863281 C 99.054688 204.960938 111.539062 217.757812 126.363281 227.214844 C 143.992188 238.460938 164.929688 244.976562 187.382812 244.976562 C 209.835938 244.976562 230.765625 238.460938 248.394531 227.214844 C 263.21875 217.765625 275.703125 204.960938 284.78125 189.863281 C 295.070312 172.78125 300.984375 152.757812 300.984375 131.371094 C 300.984375 68.628906 250.121094 17.761719 187.382812 17.761719 Z M 187.382812 194.90625 C 177.140625 194.90625 167.464844 192.488281 158.890625 188.175781 C 143.78125 180.582031 132.121094 167.152344 126.886719 150.835938 C 124.910156 144.703125 123.839844 138.167969 123.839844 131.378906 C 123.839844 96.289062 152.285156 67.839844 187.382812 67.839844 C 222.464844 67.839844 250.910156 96.285156 250.910156 131.378906 C 250.910156 138.167969 249.839844 144.710938 247.863281 150.835938 C 242.625 167.152344 230.96875 180.582031 215.863281 188.175781 C 207.300781 192.480469 197.625 194.90625 187.382812 194.90625 Z M 187.382812 194.90625 "/></g></g></svg>